<?xml version="1.0" encoding="utf-8"?>
<!-- Generator: Adobe Illustrator 16.0.0, SVG Export Plug-In . SVG Version: 6.00 Build 0)  -->
<!DOCTYPE svg PUBLIC "-//W3C//DTD SVG 1.1//EN" "http://www.w3.org/Graphics/SVG/1.1/DTD/svg11.dtd">
<svg version="1.1" id="Layer_x5F_1_x5F_1" xmlns="http://www.w3.org/2000/svg" xmlns:xlink="http://www.w3.org/1999/xlink" x="0px"
	 y="0px" width="446px" height="280px" viewBox="0 0 446 280" enable-background="new 0 0 446 280" xml:space="preserve">
<g>
	<path fill="#D8D8D8" d="M146.82,15.52c55.1-0.08,110.18,0.02,165.28-0.04C353.72,55.86,394.62,97,436.2,137.44
		c-55.28,0.2-110.56-0.02-165.82,0.12C229.26,96.8,187.76,56.46,146.82,15.52z"/>
</g>
<g>
	<path fill="#D8D8D8" d="M270.72,148H436.7c-24.1,23.5-48.08,47.18-71.96,70.94c-17.8,16.58-34.18,34.76-52.38,50.88
		c-55.02,0.42-110.08,0.06-165.12,0.18C188.18,229.1,229.7,188.8,270.72,148z"/>
</g>
<g>
	<path fill-rule="evenodd" clip-rule="evenodd" fill="#FFFFFF" d="M81.01,143.86c0.33-3.73-0.62-6.74-2.88-9l-28.29-28.28
		c-0.75-0.76-1.74-1.07-2.99-0.97c-1.25,0.13-2.32,0.62-3.23,1.53c-0.9,0.9-1.41,1.99-1.52,3.22c-0.11,1.26,0.21,2.25,0.96,3
		l28.28,28.28c0.76,0.75,1.08,1.76,0.95,3.01c-0.11,1.26-0.61,2.32-1.51,3.21c-0.9,0.91-1.98,1.43-3.24,1.54
		c-1.24,0.12-2.24-0.21-2.99-0.96l-11.31-11.32c-0.76-0.75-1.75-1.06-3-0.96c-1.25,0.12-2.32,0.62-3.22,1.53
		c-0.91,0.9-1.42,1.99-1.53,3.22c-0.11,1.26,0.21,2.25,0.96,3l11.32,11.31c0.75,0.75,1.07,1.76,0.96,3
		c-0.11,1.26-0.62,2.32-1.53,3.22c-0.9,0.91-1.98,1.43-3.22,1.53c-1.25,0.12-2.25-0.21-3-0.96L22.7,133.72
		c-0.75-0.75-1.75-1.06-3.01-0.95c-1.25,0.12-2.32,0.62-3.22,1.53c-0.91,0.9-1.41,1.97-1.53,3.22c-0.11,1.26,0.21,2.24,0.96,3
		l28.29,28.28c2.26,2.27,5.26,3.23,8.99,2.9c3.74-0.34,6.96-1.88,9.68-4.6c2.71-2.71,4.01-5.69,3.9-8.98
		c3.73-0.33,6.96-1.88,9.68-4.6C79.14,150.81,80.68,147.6,81.01,143.86z"/>
	<path fill-rule="evenodd" clip-rule="evenodd" fill="#FFFFFF" d="M90,62.46c-1.25,0.12-2.32,0.62-3.23,1.53
		c-0.9,0.9-1.41,1.99-1.52,3.22c-0.11,1.26,0.21,2.25,0.96,3l14.14,14.14l-20.36,20.36L65.85,90.57c-0.75-0.75-1.75-1.06-3.01-0.95
		c-1.25,0.12-2.32,0.62-3.22,1.53c-0.91,0.9-1.41,1.97-1.53,3.22c-0.11,1.26,0.21,2.24,0.96,3l33.94,33.94
		c0.76,0.75,1.75,1.08,3,0.96c1.26-0.11,2.32-0.62,3.23-1.53c0.9-0.9,1.41-1.96,1.52-3.22c0.12-1.25-0.2-2.26-0.95-3.01
		l-14.14-14.14l20.36-20.36l14.14,14.14c0.75,0.75,1.75,1.08,3,0.96c1.24-0.1,2.32-0.62,3.22-1.52c0.91-0.91,1.42-1.97,1.53-3.23
		c0.11-1.24-0.21-2.24-0.96-2.99L92.99,63.42C92.24,62.67,91.25,62.36,90,62.46z"/>
	<path fill-rule="evenodd" clip-rule="evenodd" fill="#FFFFFF" d="M157.65,55.34c0.75,0.75,1.07,1.76,0.95,3.01
		c-0.11,1.26-0.62,2.32-1.52,3.21L143.5,75.14c-0.9,0.91-1.97,1.43-3.22,1.53c-1.25,0.12-2.25-0.21-3-0.97l-22.62-22.62
		c-0.76-0.75-1.08-1.74-0.97-3c0.12-1.23,0.62-2.32,1.53-3.22l13.58-13.58c0.89-0.9,1.96-1.39,3.21-1.52
		c1.26-0.11,2.26,0.2,3.01,0.95L157.65,55.34z M162.74,67.22c2.71-2.71,4.24-5.92,4.57-9.66c0.33-3.73-0.62-6.74-2.88-9L141.8,25.93
		c-2.25-2.25-5.26-3.2-8.99-2.87c-3.74,0.33-6.96,1.85-9.67,4.56L109.56,41.2c-2.72,2.72-4.25,5.96-4.58,9.69s0.63,6.73,2.88,8.98
		l22.63,22.63c2.26,2.26,5.26,3.23,8.99,2.89c3.74-0.33,6.96-1.87,9.68-4.59L162.74,67.22z"/>
	<path fill-rule="evenodd" clip-rule="evenodd" fill="#FFFFFF" d="M105.85,203.31c0.75,0.75,1.74,1.08,2.99,0.96
		c1.25-0.1,2.32-0.62,3.23-1.53c0.91-0.9,1.41-1.97,1.52-3.22c0.11-1.24-0.21-2.25-0.96-3l-15.95-15.95l2.21-22.92
		c0.11-1.23-0.21-2.24-0.96-2.99L92.27,149c-0.75-0.75-1.75-1.06-2.99-0.96c-1.25,0.12-2.32,0.62-3.23,1.52
		c-0.91,0.91-1.41,1.99-1.52,3.23c-0.11,1.26,0.21,2.24,0.96,3l4.53,4.53l-1.7,18.67l-18.67,1.69l-4.53-4.53
		c-0.75-0.75-1.74-1.06-3-0.95c-1.25,0.12-2.32,0.62-3.23,1.52c-0.9,0.91-1.4,1.98-1.52,3.23c-0.11,1.26,0.21,2.24,0.96,2.99
		l5.66,5.66c0.75,0.75,1.74,1.08,2.99,0.96l23.03-2.1L105.85,203.31z"/>
	<path fill-rule="evenodd" clip-rule="evenodd" fill="#FFFFFF" d="M156.92,140.92c0.75,0.75,1.07,1.76,0.95,3
		c-0.11,1.26-0.62,2.32-1.51,3.22l-13.58,13.58c-0.91,0.9-1.98,1.42-3.23,1.52c-1.25,0.12-2.24-0.21-2.99-0.96l-22.63-22.63
		c-0.75-0.75-1.07-1.73-0.96-2.99c0.11-1.24,0.62-2.32,1.53-3.23l13.57-13.57c0.9-0.9,1.97-1.4,3.22-1.52c1.26-0.11,2.25,0.2,3,0.95
		L156.92,140.92z M162.01,152.8c2.71-2.71,4.25-5.93,4.58-9.66s-0.62-6.74-2.88-9l-22.63-22.63c-2.26-2.26-5.26-3.21-9-2.87
		c-3.73,0.33-6.96,1.85-9.66,4.56l-13.58,13.58c-2.72,2.71-4.26,5.95-4.59,9.69c-0.33,3.73,0.63,6.73,2.89,8.98l22.62,22.63
		c2.27,2.26,5.26,3.22,9,2.89c3.73-0.33,6.96-1.88,9.68-4.6L162.01,152.8z"/>
	<path fill-rule="evenodd" clip-rule="evenodd" fill="#FFFFFF" d="M209.74,99.99c0.33-3.74-0.62-6.74-2.88-9.01L178.57,62.7
		c-0.75-0.75-1.74-1.06-2.99-0.96c-1.25,0.12-2.32,0.62-3.23,1.52c-0.9,0.91-1.41,1.99-1.52,3.23c-0.11,1.26,0.21,2.24,0.96,2.99
		l28.28,28.29c0.75,0.75,1.07,1.76,0.95,3c-0.11,1.26-0.62,2.32-1.51,3.22l-13.58,13.58c-0.91,0.9-1.98,1.42-3.23,1.52
		c-1.24,0.12-2.24-0.21-2.99-0.96l-28.28-28.28c-0.76-0.75-1.75-1.06-3.01-0.95c-1.25,0.12-2.32,0.62-3.23,1.52
		c-0.9,0.91-1.4,1.98-1.52,3.23c-0.11,1.26,0.21,2.24,0.96,2.99l28.28,28.29c2.27,2.26,5.26,3.22,9,2.89
		c3.73-0.33,6.96-1.88,9.68-4.6l13.58-13.57C207.87,106.94,209.41,103.72,209.74,99.99z"/>
	<path fill-rule="evenodd" clip-rule="evenodd" fill="#FFFFFF" d="M113.91,224.94c-0.75-0.75-1.07-1.74-0.96-3
		c0.11-1.23,0.62-2.32,1.53-3.22l13.58-13.58c0.89-0.9,1.96-1.39,3.21-1.51c1.26-0.11,2.26,0.19,3.01,0.95l8.48,8.48l-20.36,20.36
		L113.91,224.94z M143.15,256.23c0.12-1.25-0.2-2.26-0.95-3.01l-14.14-14.14l20.36-20.36l14.14,14.14c0.75,0.75,1.75,1.08,3,0.96
		c1.24-0.1,2.32-0.62,3.22-1.52c0.91-0.91,1.42-1.97,1.53-3.23c0.11-1.24-0.21-2.24-0.96-2.99l-28.29-28.29
		c-2.25-2.25-5.26-3.2-8.99-2.87c-3.74,0.33-6.96,1.86-9.67,4.56l-13.58,13.58c-2.72,2.72-4.25,5.96-4.58,9.69
		c-0.34,3.73,0.63,6.73,2.88,8.98l28.28,28.29c0.76,0.75,1.75,1.08,3,0.96c1.26-0.11,2.32-0.62,3.22-1.53
		C142.53,258.55,143.04,257.49,143.15,256.23z"/>
	<path fill-rule="evenodd" clip-rule="evenodd" fill="#FFFFFF" d="M213.46,185.92c0.11-1.24-0.21-2.24-0.96-2.99l-11.32-11.32
		c-2.25-2.25-5.06-3.03-8.42-2.32c0.33-3.73-0.63-6.73-2.89-8.99l-5.66-5.66c-2.25-2.25-5.26-3.2-8.99-2.87
		c-3.74,0.33-6.96,1.85-9.67,4.56l-20.37,20.38c-0.91,0.9-1.41,1.97-1.53,3.22c-0.11,1.26,0.21,2.24,0.96,3l33.94,33.94
		c0.76,0.75,1.75,1.08,3,0.96c1.26-0.11,2.32-0.62,3.22-1.53c0.91-0.9,1.42-1.96,1.53-3.22c0.12-1.25-0.2-2.26-0.95-3.01
		l-14.14-14.14l16.97-16.97c0.89-0.9,1.96-1.39,3.21-1.51c1.26-0.11,2.26,0.19,3.01,0.95l11.31,11.31c0.75,0.75,1.75,1.08,3,0.96
		c1.24-0.1,2.32-0.62,3.22-1.52C212.84,188.24,213.35,187.18,213.46,185.92z M154.24,178.96l16.97-16.97
		c0.89-0.9,1.96-1.39,3.21-1.51c1.26-0.12,2.26,0.19,3.01,0.95l5.65,5.65c0.76,0.75,1.08,1.76,0.95,3.01
		c-0.11,1.26-0.61,2.32-1.51,3.21l-16.97,16.97L154.24,178.96z"/>
	<path fill-rule="evenodd" clip-rule="evenodd" fill="#FFFFFF" d="M232.84,132.59c0.12-1.24-0.2-2.25-0.95-3s-1.74-1.06-3-0.95
		c-1.25,0.12-2.32,0.62-3.22,1.51l-16.97,16.97l-11.31-11.31l23.75-23.76c0.91-0.9,1.42-1.96,1.53-3.22c0.11-1.24-0.21-2.24-0.96-3
		c-0.76-0.75-1.75-1.06-3-0.96c-1.25,0.12-2.32,0.62-3.23,1.53l-27.15,27.15c-0.91,0.91-1.41,1.98-1.53,3.23
		c-0.11,1.26,0.21,2.24,0.96,3l33.95,33.94c0.75,0.75,1.74,1.08,2.99,0.96c1.26-0.11,2.32-0.62,3.23-1.53L255.08,146
		c0.91-0.91,1.42-1.97,1.53-3.23c0.11-1.24-0.21-2.24-0.96-2.99c-0.75-0.76-1.75-1.07-3-0.97c-1.25,0.13-2.32,0.62-3.22,1.53
		l-23.76,23.75l-11.31-11.31l16.97-16.97C232.22,134.91,232.73,133.85,232.84,132.59z"/>
</g>
</svg>
